<svg id="Lagoon" xmlns="http://www.w3.org/2000/svg" viewBox="0 0 340.15748 340.15748"><defs><style>.cls-1{fill:#34cdd7;}</style></defs><title>Lagoon</title><path class="cls-1" d="M120.47216,238.11032H103.46434V215.22409h17.00782Zm25.51172-48.189H128.97606v48.189h17.00782Zm25.51171,16.58984H154.48778v31.59912h17.00781Zm144.56653,41.5202c0,8.64771-9.90063,15.26483-13.019,22.78479-3.23254,7.79541-1.03235,19.44617-6.9071,25.32092s-17.52527,3.67426-25.32068,6.9068c-7.5199,3.11829-14.137,13.01892-22.78467,13.01892s-15.26477-9.90063-22.78479-13.019c-7.79541-3.23254-19.44617-1.03235-25.32092-6.9071s-3.67432-17.52539-6.90674-25.32068a19.75221,19.75221,0,0,0-1.55652-2.94208H90.70849a22.70277,22.70277,0,0,1-22.67725-22.67724V204.09469H48.18847V187.08688H85.03905v58.10987a5.67606,5.67606,0,0,0,5.66944,5.66943h89.64624a11.90128,11.90128,0,0,1-.3556-2.83478c0-8.64783,9.90076-15.26483,13.019-22.78479,3.23254-7.79547,1.03235-19.44623,6.9071-25.32092s17.52539-3.67432,25.32068-6.9068c7.5199-3.11829,14.137-13.019,22.78467-13.019a12.51044,12.51044,0,0,1,4.25256.78332V89.29147a5.67606,5.67606,0,0,0-5.66943-5.66943H90.70849a5.67606,5.67606,0,0,0-5.66944,5.66943v58.11035H48.18847V130.394H68.03124V89.29147A22.70277,22.70277,0,0,1,90.70849,66.61423H246.61376A22.70278,22.70278,0,0,1,269.291,89.29147v102.9989c.50463.27,1.01232.51624,1.52441.72858,7.79541,3.23254,19.44617,1.03235,25.32092,6.9071s3.67432,17.52533,6.90686,25.32068C306.16149,232.76657,316.06212,239.3837,316.06212,248.0314Zm-14.35656-.00006a45.35664,45.35664,0,0,0-3.85547-5.22064c-2.75879-3.41223-5.88575-7.27979-7.89917-12.13507-2.06861-4.98841-2.635-10.03913-3.13489-14.49536a53.297,53.297,0,0,0-.89758-6.03638,53.31606,53.31606,0,0,0-6.03662-.89777c-4.45618-.49981-9.507-1.0664-14.49549-3.135-4.85522-2.01336-8.72265-5.14032-12.13489-7.89911a45.327,45.327,0,0,0-5.22082-3.85553,45.33288,45.33288,0,0,0-5.22058,3.85547c-3.41236,2.75885-7.27979,5.88581-12.13513,7.89917-4.98841,2.06855-10.03919,2.63507-14.49537,3.13489a53.28592,53.28592,0,0,0-6.03649.89758,53.32584,53.32584,0,0,0-.89771,6.03663c-.49988,4.45617-1.06641,9.507-3.135,14.49536-2.0133,4.85528-5.14026,8.7229-7.89917,12.13513a45.3505,45.3505,0,0,0-3.85547,5.2207,45.3476,45.3476,0,0,0,3.85535,5.22052c2.759,3.41229,5.886,7.27985,7.89941,12.13526,2.06848,4.9884,2.635,10.03912,3.13477,14.49523a53.29729,53.29729,0,0,0,.89758,6.0365,53.3112,53.3112,0,0,0,6.03662.89777c4.45618.49982,9.507,1.06641,14.49549,3.135,4.85522,2.01337,8.72277,5.14032,12.135,7.89923a45.34144,45.34144,0,0,0,5.2207,3.85541,45.33147,45.33147,0,0,0,5.22058-3.85541c3.41235-2.75891,7.27979-5.88586,12.13513-7.89923,4.98853-2.06854,10.03931-2.635,14.49549-3.13489a53.29717,53.29717,0,0,0,6.03637-.89758,53.3247,53.3247,0,0,0,.89771-6.03656c.49988-4.45624,1.0664-9.507,3.135-14.49549,2.0133-4.85522,5.14026-8.72271,7.89917-12.13494A45.333,45.333,0,0,0,301.70556,248.03134Zm-47.45479,10.63014a10.58246,10.58246,0,0,0-4.71606,1.10332l-7.01719-7.01717a10.63093,10.63093,0,0,0,0-9.4322l7.01715-7.01711a10.62957,10.62957,0,1,0-4.81051-4.81055l-7.01723,7.01715a10.62991,10.62991,0,1,0,.00008,19.05326l7.01718,7.01717a10.63,10.63,0,1,0,9.52661-5.91387Zm-15.73662-95.099-49.21057,8.67712a21.2318,21.2318,0,0,1-41.285-.00012l-49.20947-8.677,1.46533-8.36719a69.4385,69.4385,0,0,1,136.77393,0ZM175.748,167.24411a7.08692,7.08692,0,1,0-7.08692,7.08691A7.095,7.095,0,0,0,175.748,167.24411Zm42.40673-17.36231a52.45513,52.45513,0,0,0-98.98681,0l31.7948,5.60633a21.12661,21.12661,0,0,1,20.07214-9.36365l11.52124-19.95557,14.72949,8.50391-11.52844,19.968c.20593.27856.40991.55865.6023.84735Z"/></svg>